<svg width="24" height="24" viewBox="0 0 24 24" fill="none" xmlns="http://www.w3.org/2000/svg">
    <path d="M4.81934 17.9395C4.81934 18.7583 5.28271 19.2661 6.05078 19.2661H14.0552C14.0806 19.2661 14.106 19.2661 14.1313 19.2661H18.9492C19.7173 19.2661 20.1807 18.7583 20.1807 17.9395V10.0874C20.1807 9.26221 19.7173 8.75439 18.9492 8.75439H15.293V6.90723C15.293 6.08203 14.8296 5.58057 14.0552 5.58057H6.05078C5.28271 5.58057 4.81934 6.08203 4.81934 6.90723V17.9395ZM6.06982 17.6919V7.15479C6.06982 6.93896 6.17773 6.83105 6.3999 6.83105H13.7124C13.9282 6.83105 14.0425 6.93896 14.0425 7.15479V17.6919C14.0425 17.9077 13.9282 18.0156 13.7124 18.0156H12.3286V16.1812C12.3286 15.6416 12.0747 15.375 11.5605 15.375H8.55176C8.0376 15.375 7.78369 15.6416 7.78369 16.1812V18.0156H6.3999C6.17773 18.0156 6.06982 17.9077 6.06982 17.6919ZM7.98047 9.57324H9.19287C9.33887 9.57324 9.44043 9.47168 9.44043 9.31934V8.14502C9.44043 7.99268 9.33887 7.89111 9.19287 7.89111H7.98047C7.82812 7.89111 7.73291 7.99268 7.73291 8.14502V9.31934C7.73291 9.47168 7.82812 9.57324 7.98047 9.57324ZM10.9194 9.57324H12.1255C12.2778 9.57324 12.3794 9.47168 12.3794 9.31934V8.14502C12.3794 7.99268 12.2778 7.89111 12.1255 7.89111H10.9194C10.7671 7.89111 10.6719 7.99268 10.6719 8.14502V9.31934C10.6719 9.47168 10.7671 9.57324 10.9194 9.57324ZM15.293 17.9395V10.0049H18.6001C18.8223 10.0049 18.9302 10.1191 18.9302 10.335V17.6919C18.9302 17.9077 18.8223 18.0156 18.6001 18.0156H15.293C15.293 17.9902 15.293 17.9648 15.293 17.9395ZM7.98047 11.998H9.19287C9.33887 11.998 9.44043 11.8965 9.44043 11.7441V10.5698C9.44043 10.4175 9.33887 10.3159 9.19287 10.3159H7.98047C7.82812 10.3159 7.73291 10.4175 7.73291 10.5698V11.7441C7.73291 11.8965 7.82812 11.998 7.98047 11.998ZM10.9194 11.998H12.1255C12.2778 11.998 12.3794 11.8965 12.3794 11.7441V10.5698C12.3794 10.4175 12.2778 10.3159 12.1255 10.3159H10.9194C10.7671 10.3159 10.6719 10.4175 10.6719 10.5698V11.7441C10.6719 11.8965 10.7671 11.998 10.9194 11.998ZM16.6069 12.3979H17.6099C17.7368 12.3979 17.8193 12.3091 17.8193 12.1885V11.2109C17.8193 11.084 17.7368 11.0015 17.6099 11.0015H16.6069C16.48 11.0015 16.4038 11.084 16.4038 11.2109V12.1885C16.4038 12.3091 16.48 12.3979 16.6069 12.3979ZM7.98047 14.4229H9.19287C9.33887 14.4229 9.44043 14.3213 9.44043 14.1689V12.9946C9.44043 12.8423 9.33887 12.7407 9.19287 12.7407H7.98047C7.82812 12.7407 7.73291 12.8423 7.73291 12.9946V14.1689C7.73291 14.3213 7.82812 14.4229 7.98047 14.4229ZM10.9194 14.4229H12.1255C12.2778 14.4229 12.3794 14.3213 12.3794 14.1689V12.9946C12.3794 12.8423 12.2778 12.7407 12.1255 12.7407H10.9194C10.7671 12.7407 10.6719 12.8423 10.6719 12.9946V14.1689C10.6719 14.3213 10.7671 14.4229 10.9194 14.4229ZM16.6069 14.7339H17.6099C17.7368 14.7339 17.8193 14.645 17.8193 14.5244V13.5469C17.8193 13.4199 17.7368 13.3374 17.6099 13.3374H16.6069C16.48 13.3374 16.4038 13.4199 16.4038 13.5469V14.5244C16.4038 14.645 16.48 14.7339 16.6069 14.7339ZM16.6069 17.0698H17.6099C17.7368 17.0698 17.8193 16.981 17.8193 16.8604V15.8828C17.8193 15.7559 17.7368 15.6733 17.6099 15.6733H16.6069C16.48 15.6733 16.4038 15.7559 16.4038 15.8828V16.8604C16.4038 16.981 16.48 17.0698 16.6069 17.0698ZM8.76123 16.5176C8.76123 16.3843 8.82471 16.3208 8.95801 16.3208H11.1543C11.2876 16.3208 11.3511 16.3843 11.3511 16.5176V18.0156H8.76123V16.5176Z" fill="black" fill-opacity="0.65"/>
</svg>
