<svg width="24" height="24" viewBox="0 0 24 24" fill="none" xmlns="http://www.w3.org/2000/svg">
    <path d="M6.48389 11.9346H17.5098C18.5635 11.9346 19.0967 11.4141 19.0967 10.3604V7.87842C19.0967 6.83105 18.5635 6.31689 17.5098 6.31689H6.48389C5.43652 6.31689 4.90332 6.83105 4.90332 7.87842V10.3604C4.90332 11.4141 5.43652 11.9346 6.48389 11.9346ZM6.64893 10.7158C6.30615 10.7158 6.11572 10.5381 6.11572 10.1763V8.06885C6.11572 7.70703 6.30615 7.5293 6.64893 7.5293H17.3447C17.6938 7.5293 17.8779 7.70703 17.8779 8.06885V10.1763C17.8779 10.5381 17.6938 10.7158 17.3447 10.7158H6.64893ZM6.48389 18.5361H17.5098C18.5635 18.5361 19.0967 18.0156 19.0967 16.9683V14.4863C19.0967 13.439 18.5635 12.9185 17.5098 12.9185H6.48389C5.43652 12.9185 4.90332 13.439 4.90332 14.4863V16.9683C4.90332 18.0156 5.43652 18.5361 6.48389 18.5361ZM6.64893 17.3237C6.30615 17.3237 6.11572 17.1396 6.11572 16.7842V14.6704C6.11572 14.3086 6.30615 14.1309 6.64893 14.1309H17.3447C17.6938 14.1309 17.8779 14.3086 17.8779 14.6704V16.7842C17.8779 17.1396 17.6938 17.3237 17.3447 17.3237H6.64893Z" fill="black" fill-opacity="0.65"/>
</svg>
