<svg width="24" height="24" viewBox="0 0 24 24" fill="none" xmlns="http://www.w3.org/2000/svg">
    <path d="M8.12646 18.3584H16.8672C18.2446 18.3584 18.9619 17.6475 18.9619 16.2891V8.56396C18.9619 7.20557 18.2446 6.49463 16.8672 6.49463H8.12646C6.75537 6.49463 6.03809 7.19922 6.03809 8.56396V16.2891C6.03809 17.6475 6.75537 18.3584 8.12646 18.3584ZM8.12012 17.0952C7.59326 17.0952 7.30127 16.8223 7.30127 16.2637V10.4238C7.30127 9.86523 7.59326 9.59229 8.12012 9.59229H16.8735C17.4004 9.59229 17.6924 9.86523 17.6924 10.4238V16.2637C17.6924 16.8223 17.4004 17.0952 16.8735 17.0952H8.12012ZM11.2749 11.7822H11.6494C11.8779 11.7822 11.9541 11.7124 11.9541 11.4902V11.1157C11.9541 10.8872 11.8779 10.8174 11.6494 10.8174H11.2749C11.0464 10.8174 10.9702 10.8872 10.9702 11.1157V11.4902C10.9702 11.7124 11.0464 11.7822 11.2749 11.7822ZM13.3506 11.7822H13.7251C13.9473 11.7822 14.0234 11.7124 14.0234 11.4902V11.1157C14.0234 10.8872 13.9473 10.8174 13.7251 10.8174H13.3506C13.1221 10.8174 13.0459 10.8872 13.0459 11.1157V11.4902C13.0459 11.7124 13.1221 11.7822 13.3506 11.7822ZM15.4199 11.7822H15.7944C16.0229 11.7822 16.0991 11.7124 16.0991 11.4902V11.1157C16.0991 10.8872 16.0229 10.8174 15.7944 10.8174H15.4199C15.1978 10.8174 15.1216 10.8872 15.1216 11.1157V11.4902C15.1216 11.7124 15.1978 11.7822 15.4199 11.7822ZM9.20557 13.8262H9.57373C9.80225 13.8262 9.87842 13.7563 9.87842 13.5278V13.1533C9.87842 12.9312 9.80225 12.8613 9.57373 12.8613H9.20557C8.97705 12.8613 8.90088 12.9312 8.90088 13.1533V13.5278C8.90088 13.7563 8.97705 13.8262 9.20557 13.8262ZM11.2749 13.8262H11.6494C11.8779 13.8262 11.9541 13.7563 11.9541 13.5278V13.1533C11.9541 12.9312 11.8779 12.8613 11.6494 12.8613H11.2749C11.0464 12.8613 10.9702 12.9312 10.9702 13.1533V13.5278C10.9702 13.7563 11.0464 13.8262 11.2749 13.8262ZM13.3506 13.8262H13.7251C13.9473 13.8262 14.0234 13.7563 14.0234 13.5278V13.1533C14.0234 12.9312 13.9473 12.8613 13.7251 12.8613H13.3506C13.1221 12.8613 13.0459 12.9312 13.0459 13.1533V13.5278C13.0459 13.7563 13.1221 13.8262 13.3506 13.8262ZM15.4199 13.8262H15.7944C16.0229 13.8262 16.0991 13.7563 16.0991 13.5278V13.1533C16.0991 12.9312 16.0229 12.8613 15.7944 12.8613H15.4199C15.1978 12.8613 15.1216 12.9312 15.1216 13.1533V13.5278C15.1216 13.7563 15.1978 13.8262 15.4199 13.8262ZM9.20557 15.8638H9.57373C9.80225 15.8638 9.87842 15.7939 9.87842 15.5718V15.1973C9.87842 14.9688 9.80225 14.8989 9.57373 14.8989H9.20557C8.97705 14.8989 8.90088 14.9688 8.90088 15.1973V15.5718C8.90088 15.7939 8.97705 15.8638 9.20557 15.8638ZM11.2749 15.8638H11.6494C11.8779 15.8638 11.9541 15.7939 11.9541 15.5718V15.1973C11.9541 14.9688 11.8779 14.8989 11.6494 14.8989H11.2749C11.0464 14.8989 10.9702 14.9688 10.9702 15.1973V15.5718C10.9702 15.7939 11.0464 15.8638 11.2749 15.8638ZM13.3506 15.8638H13.7251C13.9473 15.8638 14.0234 15.7939 14.0234 15.5718V15.1973C14.0234 14.9688 13.9473 14.8989 13.7251 14.8989H13.3506C13.1221 14.8989 13.0459 14.9688 13.0459 15.1973V15.5718C13.0459 15.7939 13.1221 15.8638 13.3506 15.8638Z" fill="black" fill-opacity="0.65"/>
</svg>
