<svg width="29" height="24" fill="none" xmlns="http://www.w3.org/2000/svg"><path d="M3.86 23.508h21.257c2.531 0 3.867-1.313 3.867-3.82V7.383c0-2.508-1.336-3.82-3.867-3.82H22c-.914 0-1.207-.153-1.781-.75l-.926-.997c-.61-.644-1.23-.96-2.426-.96h-4.816c-1.196 0-1.817.316-2.426.96l-.926.996c-.562.586-.867.75-1.781.75H3.859c-2.53 0-3.855 1.313-3.855 3.82v12.306c0 2.507 1.324 3.82 3.855 3.82zm10.628-3.68A6.3 6.3 0 018.172 13.5a6.302 6.302 0 016.316-6.34 6.304 6.304 0 016.328 6.34 6.302 6.302 0 01-6.328 6.328zm7.078-10.64c0-.833.715-1.56 1.57-1.56.845 0 1.56.727 1.56 1.56 0 .867-.716 1.546-1.56 1.558a1.56 1.56 0 01-1.57-1.559zm-7.078 8.519a4.196 4.196 0 004.207-4.207 4.199 4.199 0 00-4.207-4.219 4.196 4.196 0 00-4.195 4.219 4.201 4.201 0 004.195 4.207z" fill="#fff"/></svg>