<svg width="24" height="24" viewBox="0 0 24 24" fill="none" xmlns="http://www.w3.org/2000/svg">
    <path d="M17.1782 18.3584C18.5493 18.3584 19.2666 17.7046 19.2666 16.3462V8.56396C19.2666 7.19922 18.5493 6.49463 17.1782 6.49463H11.6875C10.8242 6.49463 10.2085 6.7041 9.63086 7.33252L6.05078 11.1411C5.5874 11.6489 5.40967 12.0171 5.40967 12.417C5.40967 12.8169 5.5874 13.1914 6.05078 13.6929L9.63721 17.4824C10.2148 18.1108 10.8306 18.3521 11.6938 18.3521L17.1782 18.3584ZM17.0957 17.0952H11.6367C11.1987 17.0952 10.9131 16.981 10.6021 16.6572L7.04102 12.8931C6.85693 12.6963 6.7998 12.563 6.7998 12.417C6.7998 12.271 6.86328 12.1377 7.04102 11.9409L10.5957 8.16406C10.9004 7.84033 11.1987 7.75781 11.6304 7.75781H17.0957C17.6797 7.75781 18.0034 8.0625 18.0034 8.67822V16.1748C18.0034 16.7905 17.6797 17.0952 17.0957 17.0952ZM11.4336 15.0894C11.5986 15.0894 11.7446 15.0259 11.8525 14.9116L13.5093 13.2485L15.1787 14.9116C15.2866 15.0259 15.4263 15.0894 15.5977 15.0894C15.9214 15.0894 16.1753 14.8291 16.1753 14.5054C16.1753 14.3467 16.1118 14.2134 15.9976 14.0991L14.3345 12.4297L16.0039 10.7539C16.1245 10.6396 16.1816 10.5063 16.1816 10.354C16.1816 10.0303 15.9277 9.77637 15.604 9.77637C15.4453 9.77637 15.312 9.82715 15.1914 9.94775L13.5093 11.6172L11.8398 9.9541C11.7319 9.83984 11.5986 9.78906 11.4336 9.78906C11.1099 9.78906 10.856 10.0366 10.856 10.3604C10.856 10.5127 10.9194 10.6523 11.0273 10.7603L12.6968 12.4297L11.0273 14.1055C10.9194 14.2134 10.856 14.353 10.856 14.5054C10.856 14.8291 11.1099 15.0894 11.4336 15.0894Z" fill="black" fill-opacity="0.65"/>
</svg>
