<svg width="24" height="24" viewBox="0 0 24 24" fill="none" xmlns="http://www.w3.org/2000/svg">
    <path d="M7.04102 18.606H17.9526C19.3174 18.606 20.0156 17.9204 20.0156 16.5684V10.3477C20.0156 9.00195 19.3174 8.31006 17.9526 8.31006H16.3467V7.80859C16.3467 6.60889 15.6992 6.0376 14.4995 6.0376H10.4878C9.34521 6.0376 8.64697 6.60889 8.64697 7.80859V8.31006H7.04102C5.68262 8.31006 4.97803 9.00195 4.97803 10.3477V16.5684C4.97803 17.9204 5.68262 18.606 7.04102 18.606ZM9.80859 7.75781C9.80859 7.33252 10.0625 7.09131 10.5068 7.09131H14.4868C14.9312 7.09131 15.1787 7.33252 15.1787 7.75781V8.31006H9.80859V7.75781ZM7.0918 17.3872C6.53955 17.3872 6.24121 17.1079 6.24121 16.5303V10.3857C6.24121 9.81445 6.53955 9.52881 7.0918 9.52881H17.9019C18.4541 9.52881 18.7524 9.81445 18.7524 10.3857V16.5303C18.7524 17.1079 18.4541 17.3872 17.9019 17.3872H7.0918Z" fill="black" fill-opacity="0.65"/>
</svg>
