<svg width="13" height="8" viewBox="0 0 13 8" fill="none" xmlns="http://www.w3.org/2000/svg">
    <path d="M0.975586 5.9375L6.17773 0.619141C6.35547 0.427734 6.56738 0.338867 6.80664 0.338867C7.0459 0.338867 7.26465 0.43457 7.44238 0.619141L12.6377 5.9375C12.7881 6.08789 12.8701 6.2793 12.8701 6.50488C12.8701 6.96289 12.5146 7.31836 12.0635 7.31836C11.8447 7.31836 11.6328 7.23633 11.4756 7.07227L6.81348 2.28027L2.1377 7.07227C1.9873 7.22949 1.77539 7.31836 1.5498 7.31836C1.09863 7.31836 0.743164 6.96289 0.743164 6.50488C0.743164 6.28613 0.825195 6.08789 0.975586 5.9375Z" fill="#979797"/>
</svg>
