<svg width="18" height="15" fill="none" xmlns="http://www.w3.org/2000/svg"><path d="M2.71 11.22h1.18v.958c0 1.358.717 2.07 2.095 2.07h9.3c1.37 0 2.094-.712 2.094-2.07V5.697c0-1.359-.724-2.07-2.095-2.07h-1.18v-.952c0-1.358-.718-2.069-2.089-2.069H2.71c-1.377 0-2.088.71-2.088 2.07V9.15c0 1.365.711 2.07 2.088 2.07zm.082-1.264c-.584 0-.908-.305-.908-.92V2.79c0-.616.324-.915.908-.915h9.14c.578 0 .908.299.908.915v.837H5.985c-1.378 0-2.095.711-2.095 2.07v4.259H2.792zM5.16 5.811c0-.61.317-.914.907-.914h9.135c.584 0 .907.305.907.914v5.015L13.831 8.68a1.354 1.354 0 00-.915-.368c-.336 0-.634.12-.914.362L9.254 11.11l-1.098-.99c-.26-.228-.54-.349-.825-.349-.273 0-.534.114-.788.336l-1.383 1.22V5.81zm3.186 3.066c.8 0 1.466-.667 1.466-1.466a1.48 1.48 0 00-1.466-1.473c-.8 0-1.466.666-1.466 1.473 0 .8.666 1.466 1.466 1.466z" fill="#000" fill-opacity=".65"/></svg>