<svg width="24" height="24" viewBox="0 0 24 24" fill="none" xmlns="http://www.w3.org/2000/svg">
    <path d="M5.70947 16.2192H6.89014V17.1777C6.89014 18.5361 7.60742 19.2471 8.98486 19.2471H18.2842C19.6553 19.2471 20.3789 18.5361 20.3789 17.1777V10.6968C20.3789 9.33838 19.6553 8.62744 18.2842 8.62744H17.1035V7.67529C17.1035 6.31689 16.3862 5.60596 15.0151 5.60596H5.70947C4.33203 5.60596 3.62109 6.31689 3.62109 7.67529V14.1499C3.62109 15.5146 4.33203 16.2192 5.70947 16.2192ZM5.79199 14.9561C5.20801 14.9561 4.88428 14.6514 4.88428 14.0356V7.78955C4.88428 7.17383 5.20801 6.87549 5.79199 6.87549H14.9326C15.5103 6.87549 15.8403 7.17383 15.8403 7.78955V8.62744H8.98486C7.60742 8.62744 6.89014 9.33838 6.89014 10.6968V14.9561H5.79199ZM8.15967 10.811C8.15967 10.2017 8.47705 9.89697 9.06738 9.89697H18.2017C18.7856 9.89697 19.1094 10.2017 19.1094 10.811V15.8257L16.8306 13.6802C16.564 13.439 16.2466 13.312 15.9165 13.312C15.5801 13.312 15.2817 13.4326 15.0024 13.6738L12.2539 16.1113L11.1558 15.1211C10.8955 14.8926 10.6162 14.772 10.3306 14.772C10.0576 14.772 9.79736 14.8862 9.54346 15.1084L8.15967 16.3271V10.811ZM11.3462 13.877C12.146 13.877 12.8125 13.2104 12.8125 12.4106C12.8125 11.6045 12.146 10.938 11.3462 10.938C10.5464 10.938 9.87988 11.6045 9.87988 12.4106C9.87988 13.2104 10.5464 13.877 11.3462 13.877Z" fill="black" fill-opacity="0.65"/>
</svg>
