<svg width="22" height="24" viewBox="0 0 22 24" fill="none" xmlns="http://www.w3.org/2000/svg">
    <path d="M11 17.8252C11.3999 17.8252 11.7236 17.4951 11.7236 17.1206V13.147H15.5957C15.9829 13.147 16.313 12.8232 16.313 12.4233C16.313 12.0298 15.9829 11.6997 15.5957 11.6997H11.7236V7.72607C11.7236 7.34521 11.3999 7.02148 11 7.02148C10.6064 7.02148 10.2764 7.34521 10.2764 7.72607V11.6997H6.4043C6.02979 11.6997 5.68701 12.0298 5.68701 12.4233C5.68701 12.8232 6.02979 13.147 6.4043 13.147H10.2764V17.1206C10.2764 17.4951 10.6064 17.8252 11 17.8252Z" fill="black" fill-opacity="0.65"/>
</svg>
