<svg width="24" height="24" viewBox="0 0 24 24" fill="none" xmlns="http://www.w3.org/2000/svg">
    <path d="M12 17.0127C12.2793 17.0127 12.6665 15.9526 12.6665 14.2388V10.2397C13.7393 9.94775 14.52 8.96387 14.52 7.80225C14.52 6.40576 13.4028 5.26953 12 5.26953C10.6035 5.26953 9.48633 6.40576 9.48633 7.80225C9.48633 8.95752 10.2607 9.94141 11.3335 10.2334V14.2388C11.3335 15.9463 11.7271 17.0127 12 17.0127ZM11.2891 7.94189C10.832 7.94189 10.4258 7.54199 10.4258 7.07227C10.4258 6.60889 10.832 6.21533 11.2891 6.21533C11.7651 6.21533 12.1523 6.60889 12.1523 7.07227C12.1523 7.54199 11.7651 7.94189 11.2891 7.94189ZM12 19.5137C16.0371 19.5137 18.4556 18.1553 18.4556 16.5938C18.4556 14.8862 15.8403 13.7817 13.752 13.6929V14.8291C15.1738 14.8926 17.0083 15.5464 17.0083 16.4668C17.0083 17.5586 14.9009 18.314 12 18.314C9.09912 18.314 6.99805 17.5649 6.99805 16.4668C6.99805 15.5464 8.83252 14.8926 10.248 14.8291V13.6929C8.15967 13.7817 5.54443 14.8862 5.54443 16.5938C5.54443 18.1553 7.96289 19.5137 12 19.5137Z" fill="black" fill-opacity="0.65"/>
</svg>
