<svg width="24" height="24" viewBox="0 0 24 24" fill="none" xmlns="http://www.w3.org/2000/svg">
    <path d="M12.4634 19.3359L18.6841 13.1089C19.1792 12.6074 19.23 12.3154 19.23 11.5918V9.18604C19.23 8.48145 19.0649 8.24023 18.5508 7.72607L17.0972 6.27246C16.5767 5.7583 16.3354 5.59326 15.6372 5.59326H13.2251C12.5078 5.59326 12.2158 5.64404 11.7207 6.14551L5.4873 12.3662C4.53516 13.3184 4.52246 14.3276 5.49365 15.2861L9.54346 19.3359C10.5083 20.2944 11.5112 20.2881 12.4634 19.3359ZM11.6445 18.3647C11.2256 18.7837 10.7876 18.79 10.356 18.3584L6.46484 14.4736C6.0332 14.042 6.0459 13.5977 6.4585 13.1851L12.6221 7.03418C12.749 6.90723 12.8696 6.83105 13.0728 6.83105H15.6245C15.8149 6.83105 15.9482 6.90088 16.0752 7.02783L17.7954 8.74805C17.916 8.875 17.9858 9.00195 17.9858 9.19873V11.7505C17.9858 11.96 17.9224 12.0806 17.7954 12.2075L11.6445 18.3647ZM14.8438 10.8872C15.3643 10.8872 15.7578 10.4873 15.7578 9.97314C15.7578 9.46533 15.3643 9.05908 14.8438 9.05908C14.3296 9.05908 13.936 9.46533 13.936 9.97314C13.936 10.4873 14.3296 10.8872 14.8438 10.8872Z" fill="black" fill-opacity="0.65"/>
</svg>
