<svg width="24" height="24" viewBox="0 0 24 24" fill="none" xmlns="http://www.w3.org/2000/svg">
    <path d="M8.08838 18.644C8.39307 18.8726 8.76758 18.7964 9.19922 18.4854L12.5 16.0605L15.7944 18.4854C16.2261 18.7964 16.6006 18.8726 16.9053 18.644C17.2036 18.4155 17.2671 18.041 17.0957 17.5396L15.7944 13.6675L19.1206 11.2808C19.5522 10.9761 19.73 10.6333 19.6094 10.2778C19.4888 9.92236 19.1523 9.74463 18.6191 9.75098L14.5439 9.78271L13.2998 5.88525C13.1348 5.37744 12.8745 5.10449 12.5 5.10449C12.1191 5.10449 11.8589 5.37744 11.6938 5.88525L10.4561 9.78271L6.37451 9.75098C5.84131 9.74463 5.50488 9.92236 5.38428 10.2715C5.26367 10.6333 5.44775 10.9761 5.87305 11.2808L9.19922 13.6675L7.89795 17.5396C7.72656 18.041 7.79004 18.4155 8.08838 18.644ZM9.22461 17.0889C9.21191 17.0762 9.21191 17.0698 9.22461 17.0317L10.4243 13.6484C10.5322 13.3311 10.5005 13.1406 10.2021 12.9438L7.23779 10.9126C7.2124 10.8936 7.19971 10.8809 7.2124 10.8682C7.21875 10.8491 7.23145 10.8491 7.26318 10.8491L10.856 10.9316C11.186 10.9443 11.3574 10.8364 11.4526 10.5127L12.4619 7.07227C12.4746 7.03418 12.481 7.02148 12.5 7.02148C12.5127 7.02148 12.5254 7.03418 12.5317 7.07227L13.541 10.5127C13.6362 10.8364 13.8076 10.9443 14.144 10.9316L17.7305 10.8491C17.7686 10.8491 17.7812 10.8491 17.7876 10.8682C17.7939 10.8809 17.7812 10.8936 17.7559 10.9126L14.7915 12.9438C14.4995 13.1406 14.4614 13.3311 14.5757 13.6484L15.769 17.0317C15.7817 17.0698 15.7817 17.0762 15.769 17.0889C15.7627 17.1016 15.7437 17.0952 15.7183 17.0762L12.8745 14.8799C12.6079 14.6768 12.3857 14.6768 12.1191 14.8799L9.27539 17.0762C9.25 17.0952 9.2373 17.1016 9.22461 17.0889Z" fill="black" fill-opacity="0.65"/>
</svg>
