<svg width="13" height="15" fill="none" xmlns="http://www.w3.org/2000/svg"><path d="M3.586 15H9.42c.978 0 1.606-.59 1.657-1.568l.425-9.141h.698a.565.565 0 00.572-.571.558.558 0 00-.572-.559H9.382V2.21C9.382 1.231 8.76.66 7.7.66H5.288c-1.06 0-1.683.571-1.683 1.549v.952H.8a.565.565 0 100 1.13h.698l.425 9.14c.051.985.673 1.569 1.663 1.569zM4.792 2.265c0-.324.229-.533.578-.533h2.247c.35 0 .578.21.578.533v.895H4.792v-.895zM3.713 13.863c-.349 0-.603-.26-.622-.634L2.666 4.29h7.649l-.413 8.938c-.012.38-.26.634-.622.634H3.713zm.914-1.022c.273 0 .445-.171.438-.425l-.19-6.64c-.006-.254-.184-.419-.444-.419-.267 0-.438.172-.432.426l.19 6.64c.007.253.185.418.438.418zm1.873 0c.267 0 .45-.165.45-.419v-6.64c0-.253-.183-.425-.45-.425s-.444.172-.444.426v6.64c0 .253.177.418.444.418zm1.873.007a.417.417 0 00.438-.426L9 5.782c.006-.253-.165-.418-.432-.418-.26 0-.438.165-.444.419l-.19 6.64c-.007.247.165.425.438.425z" fill="#A4AAB3"/></svg>