<svg width="24" height="24" viewBox="0 0 24 24" fill="none" xmlns="http://www.w3.org/2000/svg">
    <path d="M6.55859 9.57959L7.771 8.86865C8.01855 8.71631 8.01221 8.34814 7.771 8.2085L6.55859 7.47217C6.25391 7.29443 5.93652 7.40234 5.93652 7.75781V9.30664C5.93652 9.64941 6.25391 9.75732 6.55859 9.57959ZM10.2656 9.12891H18.4414C18.7842 9.12891 19.0571 8.8623 19.0571 8.51953C19.0571 8.17676 18.7905 7.91016 18.4414 7.91016H10.2656C9.9292 7.91016 9.65625 8.17676 9.65625 8.51953C9.65625 8.8623 9.92285 9.12891 10.2656 9.12891ZM6.55859 13.4771L7.771 12.7598C8.01855 12.6138 8.01221 12.2456 7.771 12.0996L6.55859 11.3696C6.25391 11.1855 5.93652 11.2935 5.93652 11.6489V13.1978C5.93652 13.5405 6.25391 13.6484 6.55859 13.4771ZM10.2656 13.0327H18.4414C18.7842 13.0327 19.0571 12.7661 19.0571 12.4233C19.0571 12.0806 18.7905 11.814 18.4414 11.814H10.2656C9.9292 11.814 9.65625 12.0806 9.65625 12.4233C9.65625 12.7661 9.92285 13.0327 10.2656 13.0327ZM6.55859 17.3872L7.771 16.6763C8.01855 16.5239 8.01221 16.1558 7.771 16.0161L6.55859 15.2798C6.25391 15.1021 5.93652 15.21 5.93652 15.5654V17.1079C5.93652 17.457 6.25391 17.5649 6.55859 17.3872ZM10.2656 16.9365H18.4414C18.7842 16.9365 19.0571 16.6699 19.0571 16.3271C19.0571 15.9844 18.7905 15.7178 18.4414 15.7178H10.2656C9.9292 15.7178 9.65625 15.9844 9.65625 16.3271C9.65625 16.6699 9.92285 16.9365 10.2656 16.9365Z" fill="black" fill-opacity="0.65"/>
</svg>
