<svg width="16" height="14" fill="none" xmlns="http://www.w3.org/2000/svg"><path d="M2.5 10.5h-2a.5.5 0 00-.5.5v2a.5.5 0 00.5.5h2A.5.5 0 003 13v-2a.5.5 0 00-.5-.5zm0-10h-2A.5.5 0 000 1v2a.5.5 0 00.5.5h2A.5.5 0 003 3V1a.5.5 0 00-.5-.5zm0 5h-2A.5.5 0 000 6v2a.5.5 0 00.5.5h2A.5.5 0 003 8V6a.5.5 0 00-.5-.5zm13 5.5h-10a.5.5 0 00-.5.5v1a.5.5 0 00.5.5h10a.5.5 0 00.5-.5v-1a.5.5 0 00-.5-.5zm0-10h-10a.5.5 0 00-.5.5v1a.5.5 0 00.5.5h10a.5.5 0 00.5-.5v-1a.5.5 0 00-.5-.5zm0 5h-10a.5.5 0 00-.5.5v1a.5.5 0 00.5.5h10a.5.5 0 00.5-.5v-1a.5.5 0 00-.5-.5z" fill="#000" fill-opacity=".65"/></svg>