<svg width="20" height="20" fill="none" xmlns="http://www.w3.org/2000/svg"><path d="M3 10a1 1 0 00-1-1H1a1 1 0 000 2h1a1 1 0 001-1zm.64 5l-.71.71a1 1 0 000 1.41 1 1 0 001.41 0l.71-.71A1 1 0 003.64 15zM10 3a1 1 0 001-1V1a1 1 0 00-2 0v1a1 1 0 001 1zm5.66 2.34a1 1 0 00.7-.29l.71-.71a1 1 0 10-1.41-1.41l-.66.71a1 1 0 000 1.41 1 1 0 00.66.29zm-12-.29a1 1 0 001.41 0 1 1 0 000-1.41l-.71-.71a1.004 1.004 0 10-1.43 1.41l.73.71zM19 9h-1a1 1 0 100 2h1a1 1 0 000-2zm-2.64 6A1 1 0 0015 16.36l.71.71a1 1 0 001.41 0 1 1 0 000-1.41l-.76-.66zM10 4.5a5.5 5.5 0 105.5 5.5A5.51 5.51 0 0010 4.5zm0 9a3.5 3.5 0 110-7 3.5 3.5 0 010 7zm0 3.5a1 1 0 00-1 1v1a1 1 0 102 0v-1a1 1 0 00-1-1z" fill="#000" fill-opacity=".65"/></svg>