<svg width="24" height="24" viewBox="0 0 24 24" fill="none" xmlns="http://www.w3.org/2000/svg">
    <path d="M13.1475 5.94238C13.1475 5.59326 12.8491 5.29492 12.5 5.29492C12.1509 5.29492 11.8589 5.59326 11.8589 5.94238V7.23096C11.8589 7.58008 12.1509 7.87207 12.5 7.87207C12.8491 7.87207 13.1475 7.58008 13.1475 7.23096V5.94238ZM15.6865 8.30371C15.439 8.55127 15.439 8.96387 15.6929 9.21143C15.9341 9.45898 16.353 9.45898 16.6006 9.20508L17.5146 8.29102C17.7622 8.0498 17.7622 7.62451 17.5146 7.37695C17.2671 7.13574 16.8545 7.13574 16.6069 7.3833L15.6865 8.30371ZM8.39941 9.20508C8.64062 9.45898 9.05957 9.45898 9.30713 9.21143C9.55469 8.97021 9.55469 8.54492 9.31348 8.30371L8.39941 7.3833C8.1582 7.14209 7.73926 7.13574 7.4917 7.37695C7.24414 7.62451 7.24414 8.0498 7.48535 8.28467L8.39941 9.20508ZM12.5 9.04639C10.6719 9.04639 9.15479 10.5571 9.15479 12.3916C9.15479 14.2261 10.6719 15.7368 12.5 15.7368C14.3281 15.7368 15.8389 14.2261 15.8389 12.3916C15.8389 10.5571 14.3281 9.04639 12.5 9.04639ZM12.5 10.2461C13.668 10.2461 14.6455 11.2173 14.6455 12.3916C14.6455 13.5659 13.668 14.5371 12.5 14.5371C11.3257 14.5371 10.3481 13.5659 10.3481 12.3916C10.3481 11.2173 11.3257 10.2461 12.5 10.2461ZM18.9429 13.0391C19.292 13.0391 19.584 12.7407 19.584 12.3916C19.584 12.0425 19.292 11.7505 18.9429 11.7505H17.6543C17.3052 11.7505 17.0132 12.0425 17.0132 12.3916C17.0132 12.7407 17.3052 13.0391 17.6543 13.0391H18.9429ZM6.06348 11.7505C5.70801 11.7505 5.41602 12.0425 5.41602 12.3916C5.41602 12.7407 5.70801 13.0391 6.06348 13.0391H7.3457C7.69482 13.0391 7.99316 12.7407 7.99316 12.3916C7.99316 12.0425 7.69482 11.7505 7.3457 11.7505H6.06348ZM16.5942 15.5781C16.3467 15.3306 15.9341 15.3369 15.6865 15.5845C15.439 15.8257 15.439 16.2383 15.6929 16.4922L16.6133 17.4062C16.8545 17.6538 17.2734 17.6475 17.521 17.3999C17.7622 17.1523 17.7622 16.7397 17.5146 16.4922L16.5942 15.5781ZM7.48535 16.4858C7.23779 16.7334 7.23145 17.1523 7.47266 17.3936C7.72021 17.6411 8.14551 17.6475 8.38672 17.4062L9.30713 16.4922C9.55469 16.2446 9.55469 15.8257 9.31348 15.5845C9.06592 15.3369 8.64697 15.3369 8.39941 15.5781L7.48535 16.4858ZM13.1475 17.5522C13.1475 17.2031 12.8491 16.9111 12.5 16.9111C12.1509 16.9111 11.8589 17.2031 11.8589 17.5522V18.8408C11.8589 19.1899 12.1509 19.4883 12.5 19.4883C12.8491 19.4883 13.1475 19.1899 13.1475 18.8408V17.5522Z" fill="black" fill-opacity="0.65"/>
</svg>
